<svg width="46" height="38" viewBox="0 0 46 38" fill="none" xmlns="http://www.w3.org/2000/svg">
<path d="M35.1996 10.3515C32.8954 -0.186946 11.5642 -1.02633 9.23317 10.3515C6.90217 21.7293 7.91482 15.0341 6.30723 22.0285C5.42306 25.1995 0.632599 25.9258 0.632599 29.3765C0.632599 32.8272 44.9255 31.9878 45.0863 29.3765C45.247 26.7652 38.4503 25.106 37.8072 22.0285C37.1642 18.951 37.5038 20.8899 35.1996 10.3515Z" fill="white"/>
<path d="M28 4C28 6.20914 25.7614 8 23 8C20.2386 8 18 6.20914 18 4C18 1.79086 20.2386 0 23 0C25.7614 0 28 1.79086 28 4Z" fill="white"/>
<path d="M29.0017 33L16.9983 33C15.8937 33 14.9069 33.9748 15.5097 34.9004C16.2064 35.9703 17.8556 37.1601 21.7592 37.8189C22.5778 37.957 23.4225 37.9584 24.2401 37.8147C27.9362 37.1652 29.6114 35.9279 30.3706 34.8624C31.0117 33.9629 30.1063 33 29.0017 33Z" fill="white"/>
</svg>
