<svg width="47" height="48" viewBox="0 0 47 48" fill="none" xmlns="http://www.w3.org/2000/svg">
<path d="M35.5281 17.2966C36.2916 6.60888 19.1431 1.30699 14.3974 11.8318C9.65179 22.3567 12.1522 16.0879 9.09273 22.5211C7.57927 25.405 3.49911 25.1 2.63512 28.4408C1.77112 31.7816 38.0253 40.2906 38.81 37.7963C39.5946 35.3019 34.4791 32.2653 34.7264 29.1504C34.9736 26.0356 34.7645 27.9843 35.5281 17.2966Z" fill="white"/>
<path d="M30.6438 9.47292C30.0907 11.6117 27.9085 12.8971 25.7697 12.344C23.6309 11.7909 22.3455 9.60865 22.8986 7.46988C23.4518 5.33111 25.634 4.04569 27.7728 4.59881C29.9115 5.15193 31.1969 7.33415 30.6438 9.47292Z" fill="white"/>
<path d="M31.3581 38.4301C31.9087 38.4734 32.3298 38.9606 32.1715 39.4896C31.8511 40.5599 31.1531 41.5226 30.1569 42.2426C28.8641 43.1771 27.1751 43.6263 25.4614 43.4915C23.7478 43.3566 22.1498 42.6487 21.0191 41.5235C20.1478 40.6565 19.609 39.5964 19.46 38.4892C19.3864 37.9419 19.8785 37.5266 20.4291 37.5699L25.8936 38L31.3581 38.4301Z" fill="white"/>
<path d="M8 24C14 28 27 31 35 30.5" stroke="#8A8A8A" stroke-width="0.3"/>
</svg>
