<svg width="38" height="39" viewBox="0 0 38 39" fill="none" xmlns="http://www.w3.org/2000/svg">
<path d="M29.523 10.4027C27.5862 -0.135738 9.65646 -0.975117 7.69716 10.4027C5.73787 21.7805 6.58904 15.0853 5.2378 22.0797C4.49462 25.2507 0.468048 25.977 0.468048 29.4277C0.468048 32.8784 37.698 32.0391 37.8331 29.4277C37.9682 26.8164 32.2553 25.1572 31.7148 22.0797C31.1743 19.0022 31.4598 20.9411 29.523 10.4027Z" fill="white"/>
<path d="M22.8354 4.05121C22.8354 6.26035 21.0446 8.05121 18.8354 8.05121C16.6263 8.05121 14.8354 6.26035 14.8354 4.05121C14.8354 1.84207 16.6263 0.0512085 18.8354 0.0512085C21.0446 0.0512085 22.8354 1.84207 22.8354 4.05121Z" fill="white"/>
<path d="M24.9628 32.5085C25.5151 32.5085 25.9731 32.9611 25.8568 33.501C25.6214 34.593 25.0011 35.6075 24.0645 36.4035C22.849 37.4366 21.2004 38.0169 19.4814 38.0169C17.7624 38.0169 16.1139 37.4366 14.8984 36.4035C13.9618 35.6075 13.3414 34.593 13.106 33.501C12.9897 32.9611 13.4477 32.5085 14 32.5085L19.4814 32.5085H24.9628Z" fill="white"/>
<path d="M4.55017 23.7851C11.3606 26.1554 24.6976 25.8049 32.3176 23.3178" stroke="#8A8A8A" stroke-width="0.3"/>
</svg>
