<svg width="38" height="37" viewBox="0 0 38 37" fill="none" xmlns="http://www.w3.org/2000/svg">
<path d="M29.6875 10.3515C27.7508 -0.186946 9.82101 -1.02633 7.86171 10.3515C5.90242 21.7293 6.75359 15.0341 5.40235 22.0285C4.65917 25.1995 0.632599 25.9258 0.632599 29.3765C0.632599 32.8272 37.8625 31.9878 37.9976 29.3765C38.1328 26.7652 32.4198 25.106 31.8793 22.0285C31.3388 18.951 31.6243 20.8899 29.6875 10.3515Z" fill="white"/>
<path d="M23 4C23 6.20914 21.2091 8 19 8C16.7909 8 15 6.20914 15 4C15 1.79086 16.7909 0 19 0C21.2091 0 23 1.79086 23 4Z" fill="white"/>
<path d="M24.1592 33L14.7073 33C13.6028 33 12.6579 34.0532 13.5399 34.7181C14.252 35.2551 15.5742 35.7936 18.0289 36.2544C18.998 36.4363 20.0028 36.4395 20.9695 36.2456C23.2187 35.7944 24.4929 35.218 25.2147 34.6704C26.0947 34.0028 25.2638 33 24.1592 33Z" fill="white"/>
</svg>
