<svg width="37" height="43" viewBox="0 0 37 43" fill="none" xmlns="http://www.w3.org/2000/svg">
<path d="M27.7632 12.4027C26.077 1.86426 10.4674 1.02488 8.76169 12.4027C7.05594 23.7805 7.79696 17.0853 6.62058 24.0797C5.97357 27.2507 2.46805 27.977 2.46805 31.4277C2.46805 34.8784 34.8803 34.0391 34.9979 31.4277C35.1156 28.8164 30.1419 27.1572 29.6714 24.0797C29.2008 21.0022 29.4493 22.9411 27.7632 12.4027Z" stroke="white" stroke-width="3"/>
<mask id="path-2-inside-1" fill="white">
<path d="M23.6637 36.5085C24.216 36.5085 24.6731 36.96 24.5711 37.5027C24.3659 38.5941 23.826 39.608 23.011 40.4035C21.9528 41.4366 20.5176 42.0169 19.021 42.0169C17.5245 42.0169 16.0892 41.4366 15.031 40.4035C14.2161 39.608 13.6762 38.5941 13.471 37.5028C13.3689 36.96 13.826 36.5085 14.3783 36.5085L19.021 36.5085H23.6637Z"/>
</mask>
<path d="M23.6637 36.5085C24.216 36.5085 24.6731 36.96 24.5711 37.5027C24.3659 38.5941 23.826 39.608 23.011 40.4035C21.9528 41.4366 20.5176 42.0169 19.021 42.0169C17.5245 42.0169 16.0892 41.4366 15.031 40.4035C14.2161 39.608 13.6762 38.5941 13.471 37.5028C13.3689 36.96 13.826 36.5085 14.3783 36.5085L19.021 36.5085H23.6637Z" stroke="white" stroke-width="4" mask="url(#path-2-inside-1)"/>
<path d="M6.02193 25.7851C11.951 28.1554 23.5623 27.8049 30.1962 25.3178" stroke="white" stroke-width="3"/>
<mask id="mask0" mask-type="alpha" maskUnits="userSpaceOnUse" x="12" y="0" width="12" height="12">
<path d="M18.1666 11C20.7678 11 22.649 8.6268 22.649 6C22.649 3.3732 20.7678 1 18.1666 1C15.5654 1 13.6842 3.3732 13.6842 6C13.6842 8.6268 15.5654 11 18.1666 11Z" stroke="white" stroke-width="2"/>
</mask>
<g mask="url(#mask0)">
<rect x="10.7665" y="-1" width="13.9296" height="6" fill="white"/>
</g>
</svg>
