<svg width="40" height="40" viewBox="0 0 40 40" fill="none" xmlns="http://www.w3.org/2000/svg">
<path fill-rule="evenodd" clip-rule="evenodd" d="M20 40C31.0457 40 40 31.0457 40 20C40 8.95428 31.0457 0 20 0C8.9543 0 0 8.95428 0 20C0 31.0457 8.9543 40 20 40ZM29.9446 16.0513C30.7551 15.3008 30.8038 14.0354 30.0534 13.2249V13.2249C29.3029 12.4144 28.0375 12.3658 27.227 13.1162L16.6067 22.9498L13.8817 20.2249C13.1007 19.4439 11.8344 19.4439 11.0534 20.2249V20.2249C10.2723 21.0059 10.2723 22.2723 11.0533 23.0533L15.1391 27.1391C15.899 27.899 17.1236 27.9226 17.9122 27.1924L29.9446 16.0513Z" fill="white"/>
</svg>
