<svg width="23" height="23" viewBox="0 0 23 23" fill="none" xmlns="http://www.w3.org/2000/svg">
<path d="M21.0364 18.5615L3.71231 1.23742C3.02889 0.553999 1.92085 0.553999 1.23744 1.23742C0.554019 1.92083 0.554019 3.02887 1.23744 3.71229L18.5616 21.0364C19.245 21.7198 20.353 21.7198 21.0364 21.0364C21.7198 20.353 21.7198 19.2449 21.0364 18.5615Z" fill="#7E7E7E"/>
<path d="M3.71232 21.0364L21.0364 3.71231C21.7199 3.02889 21.7199 1.92085 21.0364 1.23744C20.353 0.554019 19.245 0.554019 18.5616 1.23744L1.23744 18.5616C0.554026 19.245 0.554026 20.353 1.23744 21.0364C1.92086 21.7198 3.0289 21.7198 3.71232 21.0364Z" fill="#7E7E7E"/>
</svg>
