<svg width="23" height="24" viewBox="0 0 23 24" fill="none" xmlns="http://www.w3.org/2000/svg">
<path d="M21.6495 19.4246L4.32538 2.10051C3.64196 1.4171 2.53392 1.4171 1.8505 2.10051C1.16709 2.78393 1.16709 3.89197 1.8505 4.57539L19.1746 21.8995C19.858 22.5829 20.9661 22.5829 21.6495 21.8995C22.3329 21.2161 22.3329 20.108 21.6495 19.4246Z" fill="#CB2431"/>
<path d="M4.32538 21.8995L21.6495 4.57541C22.3329 3.89199 22.3329 2.78395 21.6495 2.10053C20.9661 1.41712 19.858 1.41712 19.1746 2.10053L1.85051 19.4247C1.16709 20.1081 1.16709 21.2161 1.85051 21.8995C2.53393 22.5829 3.64197 22.5829 4.32538 21.8995Z" fill="#CB2431"/>
</svg>
