<svg width="184" height="123" viewBox="0 0 184 123" fill="none" xmlns="http://www.w3.org/2000/svg">
<circle cx="25" cy="25" r="21" stroke="white" stroke-width="8"/>
<circle cx="105" cy="98" r="21" stroke="white" stroke-width="8"/>
<path d="M78.4749 99.4749C79.8417 98.108 79.8417 95.892 78.4749 94.5251L56.201 72.2513C54.8342 70.8844 52.6181 70.8844 51.2513 72.2513C49.8844 73.6181 49.8844 75.8342 51.2513 77.201L71.0503 97L51.2513 116.799C49.8844 118.166 49.8844 120.382 51.2513 121.749C52.6181 123.116 54.8342 123.116 56.201 121.749L78.4749 99.4749ZM23.5 46V89H30.5V46H23.5ZM35 100.5H76V93.5H35V100.5ZM23.5 89C23.5 95.3513 28.6487 100.5 35 100.5V93.5C32.5147 93.5 30.5 91.4853 30.5 89H23.5Z" fill="white"/>
<path d="M102.525 71.4749C103.892 72.8417 106.108 72.8417 107.475 71.4749L129.749 49.201C131.116 47.8342 131.116 45.6181 129.749 44.2513C128.382 42.8844 126.166 42.8844 124.799 44.2513L105 64.0503L85.201 44.2513C83.8342 42.8844 81.6181 42.8844 80.2513 44.2513C78.8844 45.6181 78.8844 47.8342 80.2513 49.201L102.525 71.4749ZM47 29.5L97 29.5V22.5L47 22.5V29.5ZM101.5 34V69H108.5V34H101.5ZM97 29.5C99.4853 29.5 101.5 31.5147 101.5 34H108.5C108.5 27.6487 103.351 22.5 97 22.5V29.5Z" fill="white"/>
<path d="M162.443 72.2378C161.893 72.6824 161.107 72.6824 160.557 72.2378L145.313 59.9166C144.214 59.0276 144.842 57.25 146.256 57.25L176.744 57.25C178.158 57.25 178.786 59.0276 177.687 59.9166L162.443 72.2378Z" fill="white"/>
</svg>
