<svg width="72" height="65" viewBox="0 0 72 65" fill="none" xmlns="http://www.w3.org/2000/svg">
<path fill-rule="evenodd" clip-rule="evenodd" d="M7.82573 27.9262C7.11469 28.3299 6.25226 27.9976 5.89945 27.1839L0.150093 13.9251C-0.202716 13.1115 0.0877011 12.1246 0.798744 11.7209C1.50979 11.3172 2.37221 11.6495 2.72502 12.4631L6.5 21.0013C12.0275 6.57659 23.7941 -0.118535 35.2717 0.00158691C47.1022 0.125405 60.4798 8.49781 66.7118 23.4658C67.1772 24.5835 66.5932 25.8457 65.4612 26.2752V26.2752C64.2997 26.7159 63.0069 26.1123 62.5293 24.9655C56.8613 11.3542 45.947 4.40382 35.2717 4.29209C25.0734 4.18536 15.6326 9.73787 10.5 22.5013L18.1353 18.4009C18.8463 17.9972 19.7087 18.3295 20.0615 19.1432C20.4143 19.9568 20.1239 20.9436 19.4129 21.3473L7.82573 27.9262Z" fill="black"/>
<path fill-rule="evenodd" clip-rule="evenodd" d="M63.6743 36.1717C64.3853 35.768 65.2478 36.1003 65.6006 36.914L71.3499 50.1728C71.7027 50.9864 71.4123 51.9733 70.7013 52.377C69.9902 52.7807 69.1278 52.4484 68.775 51.6348L65 43.0966C59.4725 57.5213 47.7059 64.2164 36.2283 64.0963C24.3978 63.9725 11.0202 55.6001 4.78821 40.6321C4.32285 39.5144 4.90686 38.2522 6.03882 37.8227V37.8227C7.20029 37.382 8.49314 37.9856 8.9707 39.1324C14.6387 52.7437 25.553 59.6941 36.2283 59.8058C46.4267 59.9125 55.8674 54.36 61 41.5966L53.3647 45.697C52.6537 46.1007 51.7913 45.7684 51.4385 44.9547C51.0857 44.1411 51.3761 43.1543 52.0871 42.7506L63.6743 36.1717Z" fill="black"/>
</svg>
