<?xml version="1.0" standalone="no"?>
<!DOCTYPE svg PUBLIC "-//W3C//DTD SVG 20010904//EN"
 "http://www.w3.org/TR/2001/REC-SVG-20010904/DTD/svg10.dtd">
<svg version="1.0" xmlns="http://www.w3.org/2000/svg"
 width="180.000000pt" height="180.000000pt" viewBox="0 0 180.000000 180.000000"
 preserveAspectRatio="xMidYMid meet">
<metadata>
Created by potrace 1.11, written by Peter Selinger 2001-2013
</metadata>
<g transform="translate(0.000000,180.000000) scale(0.100000,-0.100000)"
fill="#000000" stroke="none">
<path d="M418 1496 c-55 -20 -85 -42 -118 -88 -81 -111 -59 -263 48 -345 24
-18 64 -38 88 -44 l44 -11 1 -197 c0 -215 7 -251 52 -285 26 -19 44 -21 204
-24 l175 -3 -81 -83 c-44 -46 -81 -90 -81 -99 0 -21 26 -40 48 -33 10 3 70 59
134 124 l116 117 7 -40 c18 -124 141 -215 271 -202 187 19 286 232 181 388
-29 44 -106 95 -155 104 l-38 6 118 116 c65 64 121 125 124 135 7 22 -12 48
-33 48 -9 0 -53 -36 -98 -81 l-83 -81 -4 144 c-5 229 -3 228 -347 228 l-240 0
-10 38 c-38 136 -190 216 -323 168z m145 -80 c44 -18 95 -78 103 -121 11 -60
-4 -106 -50 -151 -72 -72 -160 -72 -232 0 -67 67 -72 154 -11 223 53 60 122
78 190 49z m695 -356 l3 -144 -84 82 c-47 45 -91 82 -100 82 -21 0 -40 -26
-33 -48 3 -10 59 -71 124 -135 l118 -116 -36 -6 c-84 -14 -169 -94 -191 -179
l-10 -42 -117 118 c-63 65 -124 121 -134 124 -22 7 -48 -12 -48 -33 0 -9 37
-53 82 -99 l82 -84 -174 2 -175 3 -2 215 -2 215 52 25 c57 27 114 93 124 142
l6 28 256 -2 256 -3 3 -145z m105 -374 c44 -18 95 -78 103 -121 11 -60 -4
-106 -50 -151 -46 -46 -91 -61 -153 -49 -50 9 -119 78 -128 128 -11 55 2 103
38 144 53 60 122 78 190 49z"/>
</g>
</svg>
